<svg width="596" height="267" viewBox="0 0 596 267" fill="none" xmlns="http://www.w3.org/2000/svg">
<g clip-path="url(#clip0)">
<path d="M0 195.904C74.3775 195.539 74.8973 238.363 149.275 237.998C223.652 237.632 223.162 194.814 297.5 194.449C371.838 194.084 372.407 236.908 446.785 236.549C521.162 236.19 520.633 193.346 595 193" stroke="#FFEA78" stroke-width="5" stroke-miterlimit="10"/>
<path d="M297.5 196.16V121.53" stroke="#FFEA78" stroke-width="5" stroke-miterlimit="10"/>
<path d="M297.5 121.53L333.35 132.71" stroke="#FFEA78" stroke-width="5" stroke-miterlimit="10"/>
<path d="M333.35 132.71L297.92 147.49" stroke="#FFEA78" stroke-width="5" stroke-miterlimit="10"/>
<path d="M297.48 124C300.69 124 300.7 119 297.48 119C294.26 119 294.25 124 297.48 124Z" fill="#FFEA78"/>
<path d="M297.51 124.17C300.72 124.17 300.73 119.17 297.51 119.17C294.29 119.17 294.28 124.17 297.51 124.17Z" fill="#FFEA78"/>
<path d="M297.51 124.12C300.72 124.12 300.73 119.12 297.51 119.12C294.29 119.12 294.28 124.12 297.51 124.12Z" fill="#FFEA78"/>
<path d="M297.51 119.13L299.92 120.97V120.87C299.713 120.231 299.284 119.688 298.71 119.34C298.43 119.165 298.11 119.062 297.78 119.04C297.453 118.95 297.107 118.95 296.78 119.04L296.18 119.29C295.81 119.508 295.504 119.818 295.29 120.19L295.03 120.78C294.91 121.215 294.91 121.675 295.03 122.11V122.21L295.28 122.8C295.427 123.086 295.648 123.328 295.92 123.5C296.072 123.656 296.261 123.77 296.47 123.83C296.78 123.985 297.124 124.058 297.47 124.04C297.817 124.061 298.163 123.984 298.47 123.82C298.781 123.721 299.061 123.542 299.28 123.3C299.517 123.083 299.693 122.807 299.79 122.5C299.954 122.193 300.031 121.847 300.01 121.5L299.92 120.83C299.805 120.414 299.585 120.035 299.28 119.73L298.77 119.34C298.389 119.114 297.953 118.996 297.51 119V119.13Z" fill="#FFEA78"/>
<path d="M333.35 135.2C336.56 135.2 336.57 130.2 333.35 130.2C330.13 130.2 330.12 135.2 333.35 135.2Z" fill="#FFEA78"/>
</g>
<circle cx="470" cy="50" r="47.5" stroke="#FFEA78" stroke-width="5"/>
<defs>
<clipPath id="clip0">
<rect width="595.31" height="147.73" fill="white" transform="translate(0 119)"/>
</clipPath>
</defs>
</svg>
